<svg width="171" height="431" viewBox="0 0 171 431" fill="none" xmlns="http://www.w3.org/2000/svg">
<path d="M40.4007 184C35.0523 150.5 18.5203 140 8.79566 107.5C-5.27195 60.4858 26.7864 5.00005 84.1616 5C141.537 4.99995 175.379 57.0984 162.931 107.5C155.151 139 137.161 151.5 131.326 184H93.8862V120.5C93.8862 100.5 100.896 74.4999 118.198 82C135.5 89.5 121.115 120.5 102.638 124C90.6868 126.264 83.1861 127.499 71.5195 124C59.8501 120.5 46.2353 107.083 55.4739 96C64.7125 84.9166 78.3268 100.5 78.3268 116.5L80.2717 184H40.4007Z" stroke="white" stroke-width="10"/>
<path d="M40.4007 184C35.0523 150.5 18.5203 140 8.79566 107.5C-5.27195 60.4858 26.7864 5.00005 84.1616 5C141.537 4.99995 175.379 57.0984 162.931 107.5C155.151 139 137.161 151.5 131.326 184H93.8862V120.5C93.8862 100.5 100.896 74.4999 118.198 82C135.5 89.5 121.115 120.5 102.638 124C90.6868 126.264 83.1861 127.499 71.5195 124C59.8501 120.5 46.2353 107.083 55.4739 96C64.7125 84.9166 78.3268 100.5 78.3268 116.5L80.2717 184H40.4007Z" stroke="white" stroke-width="10"/>
<path d="M94 430H89.5V306.5C98.5 302.5 105.5 298 105.5 285.5C105.5 274.5 95.6983 268.157 85 268.5C74.7137 268.83 64.8631 276.5 64.8631 285.5C64.8631 294.5 66.6909 299.61 81 306.5V430H76.5C76.5 366.5 38.5201 329.327 4 291.5C31.5 246 40 193 40 193H131.5C131.5 193 139.5 244.5 166.5 291.5C131.445 328.519 90.5 375 94 430Z" fill="white" stroke="white"/>
</svg>
