<svg width="170" height="431" viewBox="0 0 170 431" fill="none" xmlns="http://www.w3.org/2000/svg">
<path d="M39.9007 184C34.5523 150.5 18.0203 140 8.29566 107.5C-5.77195 60.4858 26.2864 5.00005 83.6616 5C141.037 4.99995 174.879 57.0984 162.431 107.5C154.651 139 136.661 151.5 130.826 184H93.3862V120.5C93.3862 100.5 100.396 74.4999 117.698 82C135 89.5 120.615 120.5 102.138 124C90.1868 126.264 82.6861 127.499 71.0195 124C59.3501 120.5 45.7353 107.083 54.9739 96C64.2125 84.9166 77.8268 100.5 77.8268 116.5L79.7717 184H39.9007Z" stroke="black" stroke-width="10"/>
<path d="M39.9007 184C34.5523 150.5 18.0203 140 8.29566 107.5C-5.77195 60.4858 26.2864 5.00005 83.6616 5C141.037 4.99995 174.879 57.0984 162.431 107.5C154.651 139 136.661 151.5 130.826 184H93.3862V120.5C93.3862 100.5 100.396 74.4999 117.698 82C135 89.5 120.615 120.5 102.138 124C90.1868 126.264 82.6861 127.499 71.0195 124C59.3501 120.5 45.7353 107.083 54.9739 96C64.2125 84.9166 77.8268 100.5 77.8268 116.5L79.7717 184H39.9007Z" stroke="black" stroke-opacity="0.2" stroke-width="10"/>
<path d="M93.5 430H89V306.5C98 302.5 105 298 105 285.5C105 274.5 95.1983 268.157 84.5 268.5C74.2137 268.83 64.3631 276.5 64.3631 285.5C64.3631 294.5 66.1909 299.61 80.5 306.5V430H76C76 366.5 38.0201 329.327 3.5 291.5C31 246 39.5 193 39.5 193H131C131 193 139 244.5 166 291.5C130.945 328.519 90 375 93.5 430Z" fill="black" stroke="black"/>
</svg>
