<svg width="603" height="216" viewBox="0 0 603 216" fill="none" xmlns="http://www.w3.org/2000/svg">
<path d="M1.5 32.1299L56 1.71777L110.5 32.1299V92.8701L56 123.283L1.5 92.8701L1.5 32.1299Z" stroke="white" stroke-width="3"/>
<path d="M22.9205 47.3636H25.7273V54.8693C25.7273 55.7367 25.5208 56.4924 25.108 57.1364C24.6951 57.7765 24.1193 58.2727 23.3807 58.625C22.642 58.9735 21.7841 59.1477 20.8068 59.1477C19.8182 59.1477 18.9545 58.9735 18.2159 58.625C17.4773 58.2727 16.9034 57.7765 16.4943 57.1364C16.0852 56.4924 15.8807 55.7367 15.8807 54.8693V47.3636H18.6932V54.625C18.6932 55.0265 18.7803 55.3845 18.9545 55.6989C19.1326 56.0133 19.3807 56.2595 19.6989 56.4375C20.017 56.6155 20.3864 56.7045 20.8068 56.7045C21.2273 56.7045 21.5947 56.6155 21.9091 56.4375C22.2273 56.2595 22.4754 56.0133 22.6534 55.6989C22.8314 55.3845 22.9205 55.0265 22.9205 54.625V47.3636ZM35.1094 52.9375L32.5582 53.0057C32.5317 52.8239 32.4598 52.6629 32.3423 52.5227C32.2249 52.3788 32.0715 52.267 31.8821 52.1875C31.6965 52.1042 31.4806 52.0625 31.2344 52.0625C30.9124 52.0625 30.6378 52.1269 30.4105 52.2557C30.187 52.3845 30.0772 52.5587 30.081 52.7784C30.0772 52.9489 30.1454 53.0966 30.2855 53.2216C30.4295 53.3466 30.6851 53.447 31.0526 53.5227L32.7344 53.8409C33.6056 54.0076 34.2533 54.2841 34.6776 54.6705C35.1056 55.0568 35.3215 55.5682 35.3253 56.2045C35.3215 56.803 35.1435 57.3239 34.7912 57.767C34.4427 58.2102 33.9654 58.5549 33.3594 58.8011C32.7533 59.0436 32.0601 59.1648 31.2798 59.1648C30.0336 59.1648 29.0507 58.9091 28.331 58.3977C27.6151 57.8826 27.206 57.1932 27.1037 56.3295L29.848 56.2614C29.9086 56.5795 30.0658 56.822 30.3196 56.9886C30.5734 57.1553 30.8973 57.2386 31.2912 57.2386C31.6473 57.2386 31.937 57.1723 32.1605 57.0398C32.384 56.9072 32.4976 56.7311 32.5014 56.5114C32.4976 56.3144 32.4105 56.1572 32.2401 56.0398C32.0696 55.9186 31.8026 55.8239 31.4389 55.7557L29.9162 55.4659C29.0412 55.3068 28.3897 55.0133 27.9616 54.5852C27.5336 54.1534 27.3215 53.6042 27.3253 52.9375C27.3215 52.3542 27.4768 51.8561 27.7912 51.4432C28.1056 51.0265 28.5526 50.7083 29.1321 50.4886C29.7116 50.2689 30.3954 50.1591 31.1832 50.1591C32.3651 50.1591 33.2969 50.4072 33.9787 50.9034C34.6605 51.3958 35.0374 52.0739 35.1094 52.9375ZM40.7727 59.1648C39.8598 59.1648 39.072 58.9848 38.4091 58.625C37.75 58.2614 37.2424 57.7443 36.8864 57.0739C36.5341 56.3996 36.358 55.5985 36.358 54.6705C36.358 53.7689 36.536 52.9811 36.892 52.3068C37.2481 51.6288 37.75 51.1023 38.3977 50.7273C39.0455 50.3485 39.8087 50.1591 40.6875 50.1591C41.3087 50.1591 41.8769 50.2557 42.392 50.4489C42.9072 50.642 43.3523 50.928 43.7273 51.3068C44.1023 51.6856 44.3939 52.1534 44.6023 52.7102C44.8106 53.2633 44.9148 53.8977 44.9148 54.6136V55.3068H37.3295V53.6932H42.3295C42.3258 53.3977 42.2557 53.1345 42.1193 52.9034C41.983 52.6723 41.7955 52.4924 41.5568 52.3636C41.322 52.2311 41.0511 52.1648 40.7443 52.1648C40.4337 52.1648 40.1553 52.2348 39.9091 52.375C39.6629 52.5114 39.4678 52.6989 39.3239 52.9375C39.1799 53.1723 39.1042 53.4394 39.0966 53.7386V55.3807C39.0966 55.7367 39.1667 56.0492 39.3068 56.3182C39.447 56.5833 39.6458 56.7898 39.9034 56.9375C40.161 57.0852 40.4678 57.1591 40.8239 57.1591C41.0701 57.1591 41.2936 57.125 41.4943 57.0568C41.6951 56.9886 41.8674 56.8883 42.0114 56.7557C42.1553 56.6231 42.2633 56.4602 42.3352 56.267L44.8864 56.3409C44.7803 56.9129 44.5473 57.411 44.1875 57.8352C43.8314 58.2557 43.3636 58.5833 42.7841 58.8182C42.2045 59.0492 41.5341 59.1648 40.7727 59.1648ZM46.3338 59V50.2727H49.0327V51.8636H49.1236C49.2827 51.2879 49.5421 50.8598 49.902 50.5795C50.2618 50.2955 50.6804 50.1534 51.1577 50.1534C51.2865 50.1534 51.419 50.1629 51.5554 50.1818C51.6918 50.197 51.8187 50.2216 51.9361 50.2557V52.6705C51.8035 52.625 51.6293 52.589 51.4134 52.5625C51.2012 52.536 51.0118 52.5227 50.8452 52.5227C50.5156 52.5227 50.2183 52.5966 49.9531 52.7443C49.6918 52.8883 49.4853 53.0909 49.3338 53.3523C49.1861 53.6098 49.1122 53.9129 49.1122 54.2614V59H46.3338ZM15.8807 78V66.3636H20.6875C21.5587 66.3636 22.3106 66.5208 22.9432 66.8352C23.5795 67.1458 24.0701 67.5928 24.4148 68.1761C24.7595 68.7557 24.9318 69.4432 24.9318 70.2386C24.9318 71.0455 24.7557 71.7311 24.4034 72.2955C24.0511 72.8561 23.5511 73.2841 22.9034 73.5795C22.2557 73.8712 21.4886 74.017 20.6023 74.017H17.5625V71.8011H20.0795C20.5038 71.8011 20.858 71.7462 21.142 71.6364C21.4299 71.5227 21.6477 71.3523 21.7955 71.125C21.9432 70.8939 22.017 70.5985 22.017 70.2386C22.017 69.8788 21.9432 69.5814 21.7955 69.3466C21.6477 69.108 21.4299 68.9299 21.142 68.8125C20.8542 68.6913 20.5 68.6307 20.0795 68.6307H18.6932V78H15.8807ZM22.4318 72.6818L25.3295 78H22.2614L19.4205 72.6818H22.4318ZM30.3821 78.1648C29.4692 78.1648 28.6813 77.9848 28.0185 77.625C27.3594 77.2614 26.8518 76.7443 26.4957 76.0739C26.1435 75.3996 25.9673 74.5985 25.9673 73.6705C25.9673 72.7689 26.1454 71.9811 26.5014 71.3068C26.8575 70.6288 27.3594 70.1023 28.0071 69.7273C28.6548 69.3485 29.4181 69.1591 30.2969 69.1591C30.9181 69.1591 31.4863 69.2557 32.0014 69.4489C32.5166 69.642 32.9616 69.928 33.3366 70.3068C33.7116 70.6856 34.0033 71.1534 34.2116 71.7102C34.42 72.2633 34.5241 72.8977 34.5241 73.6136V74.3068H26.9389V72.6932H31.9389C31.9351 72.3977 31.8651 72.1345 31.7287 71.9034C31.5923 71.6723 31.4048 71.4924 31.1662 71.3636C30.9313 71.2311 30.6605 71.1648 30.3537 71.1648C30.0431 71.1648 29.7647 71.2348 29.5185 71.375C29.2723 71.5114 29.0772 71.6989 28.9332 71.9375C28.7893 72.1723 28.7135 72.4394 28.706 72.7386V74.3807C28.706 74.7367 28.776 75.0492 28.9162 75.3182C29.0563 75.5833 29.2552 75.7898 29.5128 75.9375C29.7704 76.0852 30.0772 76.1591 30.4332 76.1591C30.6795 76.1591 30.9029 76.125 31.1037 76.0568C31.3045 75.9886 31.4768 75.8883 31.6207 75.7557C31.7647 75.6231 31.8726 75.4602 31.9446 75.267L34.4957 75.3409C34.3897 75.9129 34.1567 76.411 33.7969 76.8352C33.4408 77.2557 32.973 77.5833 32.3935 77.8182C31.8139 78.0492 31.1435 78.1648 30.3821 78.1648ZM43.5625 71.9375L41.0114 72.0057C40.9848 71.8239 40.9129 71.6629 40.7955 71.5227C40.678 71.3788 40.5246 71.267 40.3352 71.1875C40.1496 71.1042 39.9337 71.0625 39.6875 71.0625C39.3655 71.0625 39.0909 71.1269 38.8636 71.2557C38.6402 71.3845 38.5303 71.5587 38.5341 71.7784C38.5303 71.9489 38.5985 72.0966 38.7386 72.2216C38.8826 72.3466 39.1383 72.447 39.5057 72.5227L41.1875 72.8409C42.0587 73.0076 42.7064 73.2841 43.1307 73.6705C43.5587 74.0568 43.7746 74.5682 43.7784 75.2045C43.7746 75.803 43.5966 76.3239 43.2443 76.767C42.8958 77.2102 42.4186 77.5549 41.8125 77.8011C41.2064 78.0436 40.5133 78.1648 39.733 78.1648C38.4867 78.1648 37.5038 77.9091 36.7841 77.3977C36.0682 76.8826 35.6591 76.1932 35.5568 75.3295L38.3011 75.2614C38.3617 75.5795 38.5189 75.822 38.7727 75.9886C39.0265 76.1553 39.3504 76.2386 39.7443 76.2386C40.1004 76.2386 40.3902 76.1723 40.6136 76.0398C40.8371 75.9072 40.9508 75.7311 40.9545 75.5114C40.9508 75.3144 40.8636 75.1572 40.6932 75.0398C40.5227 74.9186 40.2557 74.8239 39.892 74.7557L38.3693 74.4659C37.4943 74.3068 36.8428 74.0133 36.4148 73.5852C35.9867 73.1534 35.7746 72.6042 35.7784 71.9375C35.7746 71.3542 35.9299 70.8561 36.2443 70.4432C36.5587 70.0265 37.0057 69.7083 37.5852 69.4886C38.1648 69.2689 38.8485 69.1591 39.6364 69.1591C40.8182 69.1591 41.75 69.4072 42.4318 69.9034C43.1136 70.3958 43.4905 71.0739 43.5625 71.9375ZM49.2259 78.1648C48.313 78.1648 47.5251 77.9848 46.8622 77.625C46.2031 77.2614 45.6955 76.7443 45.3395 76.0739C44.9872 75.3996 44.8111 74.5985 44.8111 73.6705C44.8111 72.7689 44.9891 71.9811 45.3452 71.3068C45.7012 70.6288 46.2031 70.1023 46.8509 69.7273C47.4986 69.3485 48.2618 69.1591 49.1406 69.1591C49.7618 69.1591 50.33 69.2557 50.8452 69.4489C51.3603 69.642 51.8054 69.928 52.1804 70.3068C52.5554 70.6856 52.8471 71.1534 53.0554 71.7102C53.2637 72.2633 53.3679 72.8977 53.3679 73.6136V74.3068H45.7827V72.6932H50.7827C50.7789 72.3977 50.7088 72.1345 50.5724 71.9034C50.4361 71.6723 50.2486 71.4924 50.0099 71.3636C49.7751 71.2311 49.5043 71.1648 49.1974 71.1648C48.8868 71.1648 48.6084 71.2348 48.3622 71.375C48.116 71.5114 47.9209 71.6989 47.777 71.9375C47.633 72.1723 47.5573 72.4394 47.5497 72.7386V74.3807C47.5497 74.7367 47.6198 75.0492 47.7599 75.3182C47.9001 75.5833 48.099 75.7898 48.3565 75.9375C48.6141 76.0852 48.9209 76.1591 49.277 76.1591C49.5232 76.1591 49.7467 76.125 49.9474 76.0568C50.1482 75.9886 50.3205 75.8883 50.4645 75.7557C50.6084 75.6231 50.7164 75.4602 50.7884 75.267L53.3395 75.3409C53.2334 75.9129 53.0005 76.411 52.6406 76.8352C52.2846 77.2557 51.8168 77.5833 51.2372 77.8182C50.6577 78.0492 49.9872 78.1648 49.2259 78.1648ZM57.2472 78.1477C56.6903 78.1477 56.196 78.0549 55.7642 77.8693C55.3362 77.6799 54.9972 77.3958 54.7472 77.017C54.5009 76.6345 54.3778 76.1553 54.3778 75.5795C54.3778 75.0947 54.4631 74.6856 54.6335 74.3523C54.804 74.0189 55.0388 73.7481 55.3381 73.5398C55.6373 73.3314 55.982 73.1742 56.3722 73.0682C56.7623 72.9583 57.179 72.8845 57.6222 72.8466C58.1184 72.8011 58.518 72.7538 58.821 72.7045C59.1241 72.6515 59.3438 72.5777 59.4801 72.483C59.6203 72.3845 59.6903 72.2462 59.6903 72.0682V72.0398C59.6903 71.7481 59.59 71.5227 59.3892 71.3636C59.1884 71.2045 58.9176 71.125 58.5767 71.125C58.2093 71.125 57.9138 71.2045 57.6903 71.3636C57.4669 71.5227 57.3248 71.7424 57.2642 72.0227L54.7017 71.9318C54.7775 71.4015 54.9725 70.928 55.2869 70.5114C55.6051 70.0909 56.0407 69.7614 56.5938 69.5227C57.1506 69.2803 57.8191 69.1591 58.5994 69.1591C59.1563 69.1591 59.6695 69.2254 60.1392 69.358C60.6089 69.4867 61.018 69.6761 61.3665 69.9261C61.715 70.1723 61.9839 70.4754 62.1733 70.8352C62.3665 71.1951 62.4631 71.6061 62.4631 72.0682V78H59.8494V76.7841H59.7812C59.6259 77.0795 59.4271 77.3295 59.1847 77.5341C58.946 77.7386 58.6638 77.892 58.3381 77.9943C58.0161 78.0966 57.6525 78.1477 57.2472 78.1477ZM58.1051 76.3295C58.4044 76.3295 58.6733 76.2689 58.9119 76.1477C59.1544 76.0265 59.3475 75.8598 59.4915 75.6477C59.6354 75.4318 59.7074 75.1818 59.7074 74.8977V74.0682C59.6278 74.1098 59.5313 74.1477 59.4176 74.1818C59.3078 74.2159 59.1866 74.2481 59.054 74.2784C58.9214 74.3087 58.785 74.3352 58.6449 74.358C58.5047 74.3807 58.3703 74.4015 58.2415 74.4205C57.9801 74.4621 57.7566 74.5265 57.571 74.6136C57.3892 74.7008 57.2491 74.8144 57.1506 74.9545C57.0559 75.0909 57.0085 75.2538 57.0085 75.4432C57.0085 75.7311 57.1108 75.9508 57.3153 76.1023C57.5237 76.2538 57.7869 76.3295 58.1051 76.3295ZM64.1619 78V69.2727H66.8608V70.8636H66.9517C67.1108 70.2879 67.3703 69.8598 67.7301 69.5795C68.09 69.2955 68.5085 69.1534 68.9858 69.1534C69.1146 69.1534 69.2472 69.1629 69.3835 69.1818C69.5199 69.197 69.6468 69.2216 69.7642 69.2557V71.6705C69.6316 71.625 69.4574 71.589 69.2415 71.5625C69.0294 71.536 68.84 71.5227 68.6733 71.5227C68.3438 71.5227 68.0464 71.5966 67.7812 71.7443C67.5199 71.8883 67.3134 72.0909 67.1619 72.3523C67.0142 72.6098 66.9403 72.9129 66.9403 73.2614V78H64.1619ZM74.517 78.1648C73.5966 78.1648 72.8068 77.9754 72.1477 77.5966C71.4924 77.2178 70.9886 76.6913 70.6364 76.017C70.2841 75.339 70.108 74.5549 70.108 73.6648C70.108 72.7708 70.2841 71.9867 70.6364 71.3125C70.9924 70.6345 71.4981 70.1061 72.1534 69.7273C72.8125 69.3485 73.5985 69.1591 74.5114 69.1591C75.3182 69.1591 76.0208 69.3049 76.6193 69.5966C77.2216 69.8883 77.6913 70.3011 78.0284 70.8352C78.3693 71.3655 78.5492 71.9886 78.5682 72.7045H75.9716C75.9186 72.2576 75.767 71.9072 75.517 71.6534C75.2708 71.3996 74.9489 71.2727 74.5511 71.2727C74.2292 71.2727 73.947 71.3636 73.7045 71.5455C73.4621 71.7235 73.2727 71.9886 73.1364 72.3409C73.0038 72.6894 72.9375 73.1212 72.9375 73.6364C72.9375 74.1515 73.0038 74.5871 73.1364 74.9432C73.2727 75.2955 73.4621 75.5625 73.7045 75.7443C73.947 75.9223 74.2292 76.0114 74.5511 76.0114C74.8087 76.0114 75.036 75.9564 75.233 75.8466C75.4337 75.7367 75.5985 75.5758 75.7273 75.3636C75.8561 75.1477 75.9375 74.8864 75.9716 74.5795H78.5682C78.5417 75.2992 78.3617 75.928 78.0284 76.4659C77.6989 77.0038 77.2348 77.4223 76.6364 77.7216C76.0417 78.017 75.3352 78.1648 74.517 78.1648ZM82.7685 73.0227V78H79.9901V66.3636H82.6776V70.875H82.7741C82.9711 70.3371 83.2931 69.9167 83.7401 69.6136C84.1908 69.3106 84.742 69.1591 85.3935 69.1591C86.0071 69.1591 86.5412 69.2955 86.9957 69.5682C87.4503 69.8371 87.8026 70.2178 88.0526 70.7102C88.3063 71.2027 88.4313 71.7784 88.4276 72.4375V78H85.6491V72.983C85.6529 72.4981 85.5317 72.1193 85.2855 71.8466C85.0393 71.5739 84.6927 71.4375 84.2457 71.4375C83.9541 71.4375 83.6965 71.5019 83.473 71.6307C83.2533 71.7557 83.081 71.9356 82.956 72.1705C82.8348 72.4053 82.7723 72.6894 82.7685 73.0227Z" fill="white"/>
<path d="M56.5 123.13L111 92.7178L165.5 123.13V183.87L111 214.283L56.5 183.87L56.5 123.13Z" stroke="white" stroke-width="3"/>
<path d="M62.6705 159L59.2841 147.364H62.392L64.1477 154.989H64.2443L66.25 147.364H68.7841L70.7898 155.006H70.8864L72.6477 147.364H75.75L72.3693 159H69.6591L67.5625 151.943H67.4716L65.375 159H62.6705ZM76.9119 159V150.273H79.6903V159H76.9119ZM78.304 149.256C77.9138 149.256 77.5786 149.127 77.2983 148.869C77.018 148.608 76.8778 148.294 76.8778 147.926C76.8778 147.562 77.018 147.252 77.2983 146.994C77.5786 146.733 77.9138 146.602 78.304 146.602C78.6979 146.602 79.0331 146.733 79.3097 146.994C79.59 147.252 79.7301 147.562 79.7301 147.926C79.7301 148.294 79.59 148.608 79.3097 148.869C79.0331 149.127 78.6979 149.256 78.304 149.256ZM81.4588 159V150.273H84.1577V151.864H84.2486C84.4077 151.288 84.6671 150.86 85.027 150.58C85.3868 150.295 85.8054 150.153 86.2827 150.153C86.4115 150.153 86.544 150.163 86.6804 150.182C86.8168 150.197 86.9437 150.222 87.0611 150.256V152.67C86.9285 152.625 86.7543 152.589 86.5384 152.562C86.3262 152.536 86.1368 152.523 85.9702 152.523C85.6406 152.523 85.3433 152.597 85.0781 152.744C84.8168 152.888 84.6103 153.091 84.4588 153.352C84.3111 153.61 84.2372 153.913 84.2372 154.261V159H81.4588ZM91.8196 159.165C90.9067 159.165 90.1188 158.985 89.456 158.625C88.7969 158.261 88.2893 157.744 87.9332 157.074C87.581 156.4 87.4048 155.598 87.4048 154.67C87.4048 153.769 87.5829 152.981 87.9389 152.307C88.295 151.629 88.7969 151.102 89.4446 150.727C90.0923 150.348 90.8556 150.159 91.7344 150.159C92.3556 150.159 92.9238 150.256 93.4389 150.449C93.9541 150.642 94.3991 150.928 94.7741 151.307C95.1491 151.686 95.4408 152.153 95.6491 152.71C95.8575 153.263 95.9616 153.898 95.9616 154.614V155.307H88.3764V153.693H93.3764C93.3726 153.398 93.3026 153.134 93.1662 152.903C93.0298 152.672 92.8423 152.492 92.6037 152.364C92.3688 152.231 92.098 152.165 91.7912 152.165C91.4806 152.165 91.2022 152.235 90.956 152.375C90.7098 152.511 90.5147 152.699 90.3707 152.938C90.2268 153.172 90.151 153.439 90.1435 153.739V155.381C90.1435 155.737 90.2135 156.049 90.3537 156.318C90.4938 156.583 90.6927 156.79 90.9503 156.938C91.2079 157.085 91.5147 157.159 91.8707 157.159C92.117 157.159 92.3404 157.125 92.5412 157.057C92.742 156.989 92.9143 156.888 93.0582 156.756C93.2022 156.623 93.3101 156.46 93.3821 156.267L95.9332 156.341C95.8272 156.913 95.5942 157.411 95.2344 157.835C94.8783 158.256 94.4105 158.583 93.831 158.818C93.2514 159.049 92.581 159.165 91.8196 159.165ZM102.341 150.273V152.318H96.7273V150.273H102.341ZM97.8977 159V149.83C97.8977 149.155 98.0246 148.597 98.2784 148.153C98.5322 147.706 98.8845 147.373 99.3352 147.153C99.786 146.93 100.307 146.818 100.898 146.818C101.284 146.818 101.648 146.848 101.989 146.909C102.333 146.966 102.589 147.017 102.756 147.062L102.312 149.097C102.21 149.062 102.085 149.034 101.938 149.011C101.794 148.989 101.657 148.977 101.528 148.977C101.203 148.977 100.979 149.049 100.858 149.193C100.737 149.337 100.676 149.534 100.676 149.784V159H97.8977ZM103.678 159V150.273H106.376V151.864H106.467C106.626 151.288 106.886 150.86 107.246 150.58C107.606 150.295 108.024 150.153 108.501 150.153C108.63 150.153 108.763 150.163 108.899 150.182C109.036 150.197 109.162 150.222 109.28 150.256V152.67C109.147 152.625 108.973 152.589 108.757 152.562C108.545 152.536 108.356 152.523 108.189 152.523C107.859 152.523 107.562 152.597 107.297 152.744C107.036 152.888 106.829 153.091 106.678 153.352C106.53 153.61 106.456 153.913 106.456 154.261V159H103.678ZM112.544 159.148C111.987 159.148 111.493 159.055 111.061 158.869C110.633 158.68 110.294 158.396 110.044 158.017C109.798 157.634 109.675 157.155 109.675 156.58C109.675 156.095 109.76 155.686 109.93 155.352C110.101 155.019 110.336 154.748 110.635 154.54C110.934 154.331 111.279 154.174 111.669 154.068C112.059 153.958 112.476 153.884 112.919 153.847C113.415 153.801 113.815 153.754 114.118 153.705C114.421 153.652 114.641 153.578 114.777 153.483C114.917 153.384 114.987 153.246 114.987 153.068V153.04C114.987 152.748 114.887 152.523 114.686 152.364C114.485 152.205 114.214 152.125 113.874 152.125C113.506 152.125 113.211 152.205 112.987 152.364C112.764 152.523 112.622 152.742 112.561 153.023L109.999 152.932C110.074 152.402 110.269 151.928 110.584 151.511C110.902 151.091 111.338 150.761 111.891 150.523C112.447 150.28 113.116 150.159 113.896 150.159C114.453 150.159 114.966 150.225 115.436 150.358C115.906 150.487 116.315 150.676 116.663 150.926C117.012 151.172 117.281 151.475 117.47 151.835C117.663 152.195 117.76 152.606 117.76 153.068V159H115.146V157.784H115.078C114.923 158.08 114.724 158.33 114.482 158.534C114.243 158.739 113.961 158.892 113.635 158.994C113.313 159.097 112.949 159.148 112.544 159.148ZM113.402 157.33C113.701 157.33 113.97 157.269 114.209 157.148C114.451 157.027 114.644 156.86 114.788 156.648C114.932 156.432 115.004 156.182 115.004 155.898V155.068C114.925 155.11 114.828 155.148 114.714 155.182C114.605 155.216 114.483 155.248 114.351 155.278C114.218 155.309 114.082 155.335 113.942 155.358C113.802 155.381 113.667 155.402 113.538 155.42C113.277 155.462 113.054 155.527 112.868 155.614C112.686 155.701 112.546 155.814 112.447 155.955C112.353 156.091 112.305 156.254 112.305 156.443C112.305 156.731 112.408 156.951 112.612 157.102C112.821 157.254 113.084 157.33 113.402 157.33ZM119.459 159V150.273H122.101V151.875H122.197C122.379 151.345 122.686 150.926 123.118 150.619C123.55 150.312 124.065 150.159 124.663 150.159C125.269 150.159 125.788 150.314 126.22 150.625C126.652 150.936 126.927 151.352 127.044 151.875H127.135C127.298 151.356 127.616 150.941 128.089 150.631C128.563 150.316 129.122 150.159 129.766 150.159C130.591 150.159 131.262 150.424 131.777 150.955C132.292 151.481 132.55 152.205 132.55 153.125V159H129.771V153.761C129.771 153.326 129.66 152.994 129.436 152.767C129.213 152.536 128.923 152.42 128.567 152.42C128.184 152.42 127.883 152.545 127.663 152.795C127.447 153.042 127.339 153.373 127.339 153.79V159H124.669V153.733C124.669 153.328 124.559 153.008 124.339 152.773C124.12 152.538 123.83 152.42 123.47 152.42C123.228 152.42 123.014 152.479 122.828 152.597C122.643 152.71 122.497 152.873 122.391 153.085C122.288 153.297 122.237 153.547 122.237 153.835V159H119.459ZM134.271 159V150.273H137.05V159H134.271ZM135.663 149.256C135.273 149.256 134.938 149.127 134.658 148.869C134.377 148.608 134.237 148.294 134.237 147.926C134.237 147.562 134.377 147.252 134.658 146.994C134.938 146.733 135.273 146.602 135.663 146.602C136.057 146.602 136.393 146.733 136.669 146.994C136.949 147.252 137.089 147.562 137.089 147.926C137.089 148.294 136.949 148.608 136.669 148.869C136.393 149.127 136.057 149.256 135.663 149.256ZM141.597 154.023V159H138.818V150.273H141.46V151.875H141.557C141.75 151.341 142.08 150.922 142.545 150.619C143.011 150.312 143.566 150.159 144.21 150.159C144.824 150.159 145.356 150.297 145.807 150.574C146.261 150.847 146.614 151.229 146.864 151.722C147.117 152.21 147.242 152.782 147.239 153.438V159H144.46V153.983C144.464 153.498 144.341 153.119 144.091 152.847C143.845 152.574 143.502 152.438 143.062 152.438C142.771 152.438 142.513 152.502 142.29 152.631C142.07 152.756 141.9 152.936 141.778 153.17C141.661 153.405 141.6 153.689 141.597 154.023ZM153.027 162.455C152.197 162.455 151.487 162.339 150.896 162.108C150.305 161.877 149.841 161.561 149.504 161.159C149.167 160.758 148.964 160.303 148.896 159.795L151.527 159.648C151.576 159.826 151.667 159.981 151.8 160.114C151.936 160.246 152.112 160.348 152.328 160.42C152.548 160.492 152.805 160.528 153.101 160.528C153.567 160.528 153.951 160.415 154.254 160.188C154.561 159.964 154.714 159.572 154.714 159.011V157.477H154.618C154.508 157.746 154.341 157.987 154.118 158.199C153.894 158.411 153.616 158.578 153.283 158.699C152.953 158.82 152.574 158.881 152.146 158.881C151.51 158.881 150.927 158.733 150.396 158.438C149.87 158.138 149.447 157.676 149.129 157.051C148.815 156.422 148.658 155.614 148.658 154.625C148.658 153.606 148.821 152.767 149.146 152.108C149.472 151.445 149.898 150.955 150.425 150.636C150.955 150.318 151.525 150.159 152.135 150.159C152.593 150.159 152.985 150.239 153.311 150.398C153.641 150.553 153.911 150.754 154.124 151C154.336 151.246 154.497 151.502 154.607 151.767H154.686V150.273H157.453V159.034C157.453 159.773 157.268 160.396 156.896 160.903C156.525 161.411 156.006 161.795 155.339 162.057C154.673 162.322 153.902 162.455 153.027 162.455ZM153.112 156.858C153.449 156.858 153.737 156.769 153.976 156.591C154.214 156.413 154.398 156.157 154.527 155.824C154.656 155.491 154.72 155.091 154.72 154.625C154.72 154.152 154.656 153.744 154.527 153.403C154.402 153.059 154.218 152.794 153.976 152.608C153.737 152.422 153.449 152.33 153.112 152.33C152.768 152.33 152.476 152.424 152.237 152.614C151.999 152.803 151.817 153.07 151.692 153.415C151.571 153.756 151.51 154.159 151.51 154.625C151.51 155.091 151.572 155.491 151.697 155.824C151.822 156.157 152.002 156.413 152.237 156.591C152.476 156.769 152.768 156.858 153.112 156.858Z" fill="white"/>
<path d="M274.5 123.13L329 92.7178L383.5 123.13V183.87L329 214.283L274.5 183.87V123.13Z" stroke="white" stroke-width="3"/>
<path d="M280.881 159V147.364H285.688C286.559 147.364 287.311 147.534 287.943 147.875C288.58 148.212 289.07 148.684 289.415 149.29C289.759 149.892 289.932 150.593 289.932 151.392C289.932 152.195 289.756 152.898 289.403 153.5C289.055 154.098 288.557 154.562 287.909 154.892C287.261 155.222 286.492 155.386 285.602 155.386H282.636V153.17H285.08C285.504 153.17 285.858 153.097 286.142 152.949C286.43 152.801 286.648 152.595 286.795 152.33C286.943 152.061 287.017 151.748 287.017 151.392C287.017 151.032 286.943 150.722 286.795 150.46C286.648 150.195 286.43 149.991 286.142 149.847C285.854 149.703 285.5 149.631 285.08 149.631H283.693V159H280.881ZM291.318 159V150.273H294.017V151.864H294.108C294.267 151.288 294.527 150.86 294.886 150.58C295.246 150.295 295.665 150.153 296.142 150.153C296.271 150.153 296.403 150.163 296.54 150.182C296.676 150.197 296.803 150.222 296.92 150.256V152.67C296.788 152.625 296.614 152.589 296.398 152.562C296.186 152.536 295.996 152.523 295.83 152.523C295.5 152.523 295.203 152.597 294.938 152.744C294.676 152.888 294.47 153.091 294.318 153.352C294.17 153.61 294.097 153.913 294.097 154.261V159H291.318ZM301.673 159.165C300.757 159.165 299.969 158.977 299.31 158.602C298.654 158.223 298.149 157.697 297.793 157.023C297.44 156.345 297.264 155.559 297.264 154.665C297.264 153.767 297.44 152.981 297.793 152.307C298.149 151.629 298.654 151.102 299.31 150.727C299.969 150.348 300.757 150.159 301.673 150.159C302.59 150.159 303.376 150.348 304.031 150.727C304.69 151.102 305.196 151.629 305.548 152.307C305.904 152.981 306.082 153.767 306.082 154.665C306.082 155.559 305.904 156.345 305.548 157.023C305.196 157.697 304.69 158.223 304.031 158.602C303.376 158.977 302.59 159.165 301.673 159.165ZM301.69 157.068C302.024 157.068 302.306 156.966 302.537 156.761C302.768 156.557 302.944 156.273 303.065 155.909C303.19 155.545 303.253 155.125 303.253 154.648C303.253 154.163 303.19 153.739 303.065 153.375C302.944 153.011 302.768 152.727 302.537 152.523C302.306 152.318 302.024 152.216 301.69 152.216C301.346 152.216 301.054 152.318 300.815 152.523C300.58 152.727 300.401 153.011 300.276 153.375C300.154 153.739 300.094 154.163 300.094 154.648C300.094 155.125 300.154 155.545 300.276 155.909C300.401 156.273 300.58 156.557 300.815 156.761C301.054 156.966 301.346 157.068 301.69 157.068ZM312.432 150.273V152.318H306.926V150.273H312.432ZM308.08 148.182H310.858V156.256C310.858 156.426 310.884 156.564 310.938 156.67C310.994 156.773 311.076 156.847 311.182 156.892C311.288 156.934 311.415 156.955 311.562 156.955C311.669 156.955 311.78 156.945 311.898 156.926C312.019 156.903 312.11 156.884 312.17 156.869L312.591 158.875C312.458 158.913 312.271 158.96 312.028 159.017C311.79 159.074 311.504 159.11 311.17 159.125C310.519 159.155 309.96 159.08 309.494 158.898C309.032 158.712 308.678 158.424 308.432 158.034C308.189 157.644 308.072 157.153 308.08 156.562V148.182ZM317.83 159.165C316.913 159.165 316.125 158.977 315.466 158.602C314.811 158.223 314.305 157.697 313.949 157.023C313.597 156.345 313.42 155.559 313.42 154.665C313.42 153.767 313.597 152.981 313.949 152.307C314.305 151.629 314.811 151.102 315.466 150.727C316.125 150.348 316.913 150.159 317.83 150.159C318.746 150.159 319.532 150.348 320.188 150.727C320.847 151.102 321.352 151.629 321.705 152.307C322.061 152.981 322.239 153.767 322.239 154.665C322.239 155.559 322.061 156.345 321.705 157.023C321.352 157.697 320.847 158.223 320.188 158.602C319.532 158.977 318.746 159.165 317.83 159.165ZM317.847 157.068C318.18 157.068 318.462 156.966 318.693 156.761C318.924 156.557 319.1 156.273 319.222 155.909C319.347 155.545 319.409 155.125 319.409 154.648C319.409 154.163 319.347 153.739 319.222 153.375C319.1 153.011 318.924 152.727 318.693 152.523C318.462 152.318 318.18 152.216 317.847 152.216C317.502 152.216 317.21 152.318 316.972 152.523C316.737 152.727 316.557 153.011 316.432 153.375C316.311 153.739 316.25 154.163 316.25 154.648C316.25 155.125 316.311 155.545 316.432 155.909C316.557 156.273 316.737 156.557 316.972 156.761C317.21 156.966 317.502 157.068 317.847 157.068ZM328.588 150.273V152.318H323.082V150.273H328.588ZM324.236 148.182H327.014V156.256C327.014 156.426 327.041 156.564 327.094 156.67C327.151 156.773 327.232 156.847 327.338 156.892C327.444 156.934 327.571 156.955 327.719 156.955C327.825 156.955 327.937 156.945 328.054 156.926C328.175 156.903 328.266 156.884 328.327 156.869L328.747 158.875C328.615 158.913 328.427 158.96 328.185 159.017C327.946 159.074 327.66 159.11 327.327 159.125C326.675 159.155 326.116 159.08 325.651 158.898C325.188 158.712 324.834 158.424 324.588 158.034C324.346 157.644 324.228 157.153 324.236 156.562V148.182ZM331.705 162.273C331.371 162.273 331.057 162.246 330.761 162.193C330.466 162.144 330.212 162.078 330 161.994L330.614 159.977C330.886 160.068 331.133 160.121 331.352 160.136C331.576 160.152 331.767 160.116 331.926 160.028C332.089 159.945 332.214 159.795 332.301 159.58L332.409 159.318L329.307 150.273H332.216L333.824 156.5H333.915L335.545 150.273H338.472L335.182 159.835C335.023 160.313 334.797 160.733 334.506 161.097C334.218 161.464 333.845 161.752 333.386 161.96C332.932 162.169 332.371 162.273 331.705 162.273ZM339.537 162.273V150.273H342.287V151.767H342.372C342.486 151.502 342.647 151.246 342.855 151C343.067 150.754 343.336 150.553 343.662 150.398C343.991 150.239 344.385 150.159 344.844 150.159C345.45 150.159 346.016 150.318 346.543 150.636C347.073 150.955 347.501 151.445 347.827 152.108C348.152 152.771 348.315 153.616 348.315 154.642C348.315 155.631 348.158 156.458 347.844 157.125C347.533 157.792 347.113 158.292 346.582 158.625C346.056 158.958 345.471 159.125 344.827 159.125C344.387 159.125 344.007 159.053 343.685 158.909C343.363 158.765 343.092 158.576 342.872 158.341C342.656 158.106 342.49 157.854 342.372 157.585H342.315V162.273H339.537ZM342.259 154.636C342.259 155.106 342.321 155.515 342.446 155.864C342.575 156.212 342.759 156.483 342.997 156.676C343.24 156.866 343.529 156.96 343.866 156.96C344.207 156.96 344.497 156.866 344.736 156.676C344.974 156.483 345.154 156.212 345.276 155.864C345.401 155.515 345.463 155.106 345.463 154.636C345.463 154.167 345.401 153.759 345.276 153.415C345.154 153.07 344.974 152.803 344.736 152.614C344.501 152.424 344.211 152.33 343.866 152.33C343.526 152.33 343.236 152.422 342.997 152.608C342.759 152.794 342.575 153.059 342.446 153.403C342.321 153.748 342.259 154.159 342.259 154.636ZM349.771 159V150.273H352.55V159H349.771ZM351.163 149.256C350.773 149.256 350.438 149.127 350.158 148.869C349.877 148.608 349.737 148.294 349.737 147.926C349.737 147.562 349.877 147.252 350.158 146.994C350.438 146.733 350.773 146.602 351.163 146.602C351.557 146.602 351.893 146.733 352.169 146.994C352.449 147.252 352.589 147.562 352.589 147.926C352.589 148.294 352.449 148.608 352.169 148.869C351.893 149.127 351.557 149.256 351.163 149.256ZM357.097 154.023V159H354.318V150.273H356.96V151.875H357.057C357.25 151.341 357.58 150.922 358.045 150.619C358.511 150.312 359.066 150.159 359.71 150.159C360.324 150.159 360.856 150.297 361.307 150.574C361.761 150.847 362.114 151.229 362.364 151.722C362.617 152.21 362.742 152.782 362.739 153.438V159H359.96V153.983C359.964 153.498 359.841 153.119 359.591 152.847C359.345 152.574 359.002 152.438 358.562 152.438C358.271 152.438 358.013 152.502 357.79 152.631C357.57 152.756 357.4 152.936 357.278 153.17C357.161 153.405 357.1 153.689 357.097 154.023ZM368.527 162.455C367.697 162.455 366.987 162.339 366.396 162.108C365.805 161.877 365.341 161.561 365.004 161.159C364.667 160.758 364.464 160.303 364.396 159.795L367.027 159.648C367.076 159.826 367.167 159.981 367.3 160.114C367.436 160.246 367.612 160.348 367.828 160.42C368.048 160.492 368.305 160.528 368.601 160.528C369.067 160.528 369.451 160.415 369.754 160.188C370.061 159.964 370.214 159.572 370.214 159.011V157.477H370.118C370.008 157.746 369.841 157.987 369.618 158.199C369.394 158.411 369.116 158.578 368.783 158.699C368.453 158.82 368.074 158.881 367.646 158.881C367.01 158.881 366.427 158.733 365.896 158.438C365.37 158.138 364.947 157.676 364.629 157.051C364.315 156.422 364.158 155.614 364.158 154.625C364.158 153.606 364.321 152.767 364.646 152.108C364.972 151.445 365.398 150.955 365.925 150.636C366.455 150.318 367.025 150.159 367.635 150.159C368.093 150.159 368.485 150.239 368.811 150.398C369.141 150.553 369.411 150.754 369.624 151C369.836 151.246 369.997 151.502 370.107 151.767H370.186V150.273H372.953V159.034C372.953 159.773 372.768 160.396 372.396 160.903C372.025 161.411 371.506 161.795 370.839 162.057C370.173 162.322 369.402 162.455 368.527 162.455ZM368.612 156.858C368.949 156.858 369.237 156.769 369.476 156.591C369.714 156.413 369.898 156.157 370.027 155.824C370.156 155.491 370.22 155.091 370.22 154.625C370.22 154.152 370.156 153.744 370.027 153.403C369.902 153.059 369.718 152.794 369.476 152.608C369.237 152.422 368.949 152.33 368.612 152.33C368.268 152.33 367.976 152.424 367.737 152.614C367.499 152.803 367.317 153.07 367.192 153.415C367.071 153.756 367.01 154.159 367.01 154.625C367.01 155.091 367.072 155.491 367.197 155.824C367.322 156.157 367.502 156.413 367.737 156.591C367.976 156.769 368.268 156.858 368.612 156.858Z" fill="white"/>
<path d="M110.5 32.1299L165 1.71777L219.5 32.1299V92.8701L165 123.283L110.5 92.8701V32.1299Z" stroke="white" stroke-width="3"/>
<path d="M148.92 47.3636H151.727V54.8693C151.727 55.7367 151.521 56.4924 151.108 57.1364C150.695 57.7765 150.119 58.2727 149.381 58.625C148.642 58.9735 147.784 59.1477 146.807 59.1477C145.818 59.1477 144.955 58.9735 144.216 58.625C143.477 58.2727 142.903 57.7765 142.494 57.1364C142.085 56.4924 141.881 55.7367 141.881 54.8693V47.3636H144.693V54.625C144.693 55.0265 144.78 55.3845 144.955 55.6989C145.133 56.0133 145.381 56.2595 145.699 56.4375C146.017 56.6155 146.386 56.7045 146.807 56.7045C147.227 56.7045 147.595 56.6155 147.909 56.4375C148.227 56.2595 148.475 56.0133 148.653 55.6989C148.831 55.3845 148.92 55.0265 148.92 54.625V47.3636ZM161.109 52.9375L158.558 53.0057C158.532 52.8239 158.46 52.6629 158.342 52.5227C158.225 52.3788 158.071 52.267 157.882 52.1875C157.696 52.1042 157.481 52.0625 157.234 52.0625C156.912 52.0625 156.638 52.1269 156.411 52.2557C156.187 52.3845 156.077 52.5587 156.081 52.7784C156.077 52.9489 156.145 53.0966 156.286 53.2216C156.429 53.3466 156.685 53.447 157.053 53.5227L158.734 53.8409C159.606 54.0076 160.253 54.2841 160.678 54.6705C161.106 55.0568 161.321 55.5682 161.325 56.2045C161.321 56.803 161.143 57.3239 160.791 57.767C160.443 58.2102 159.965 58.5549 159.359 58.8011C158.753 59.0436 158.06 59.1648 157.28 59.1648C156.034 59.1648 155.051 58.9091 154.331 58.3977C153.615 57.8826 153.206 57.1932 153.104 56.3295L155.848 56.2614C155.909 56.5795 156.066 56.822 156.32 56.9886C156.573 57.1553 156.897 57.2386 157.291 57.2386C157.647 57.2386 157.937 57.1723 158.161 57.0398C158.384 56.9072 158.498 56.7311 158.501 56.5114C158.498 56.3144 158.411 56.1572 158.24 56.0398C158.07 55.9186 157.803 55.8239 157.439 55.7557L155.916 55.4659C155.041 55.3068 154.39 55.0133 153.962 54.5852C153.534 54.1534 153.321 53.6042 153.325 52.9375C153.321 52.3542 153.477 51.8561 153.791 51.4432C154.106 51.0265 154.553 50.7083 155.132 50.4886C155.712 50.2689 156.395 50.1591 157.183 50.1591C158.365 50.1591 159.297 50.4072 159.979 50.9034C160.661 51.3958 161.037 52.0739 161.109 52.9375ZM166.773 59.1648C165.86 59.1648 165.072 58.9848 164.409 58.625C163.75 58.2614 163.242 57.7443 162.886 57.0739C162.534 56.3996 162.358 55.5985 162.358 54.6705C162.358 53.7689 162.536 52.9811 162.892 52.3068C163.248 51.6288 163.75 51.1023 164.398 50.7273C165.045 50.3485 165.809 50.1591 166.688 50.1591C167.309 50.1591 167.877 50.2557 168.392 50.4489C168.907 50.642 169.352 50.928 169.727 51.3068C170.102 51.6856 170.394 52.1534 170.602 52.7102C170.811 53.2633 170.915 53.8977 170.915 54.6136V55.3068H163.33V53.6932H168.33C168.326 53.3977 168.256 53.1345 168.119 52.9034C167.983 52.6723 167.795 52.4924 167.557 52.3636C167.322 52.2311 167.051 52.1648 166.744 52.1648C166.434 52.1648 166.155 52.2348 165.909 52.375C165.663 52.5114 165.468 52.6989 165.324 52.9375C165.18 53.1723 165.104 53.4394 165.097 53.7386V55.3807C165.097 55.7367 165.167 56.0492 165.307 56.3182C165.447 56.5833 165.646 56.7898 165.903 56.9375C166.161 57.0852 166.468 57.1591 166.824 57.1591C167.07 57.1591 167.294 57.125 167.494 57.0568C167.695 56.9886 167.867 56.8883 168.011 56.7557C168.155 56.6231 168.263 56.4602 168.335 56.267L170.886 56.3409C170.78 56.9129 170.547 57.411 170.188 57.8352C169.831 58.2557 169.364 58.5833 168.784 58.8182C168.205 59.0492 167.534 59.1648 166.773 59.1648ZM172.334 59V50.2727H175.033V51.8636H175.124C175.283 51.2879 175.542 50.8598 175.902 50.5795C176.262 50.2955 176.68 50.1534 177.158 50.1534C177.286 50.1534 177.419 50.1629 177.555 50.1818C177.692 50.197 177.819 50.2216 177.936 50.2557V52.6705C177.804 52.625 177.629 52.589 177.413 52.5625C177.201 52.536 177.012 52.5227 176.845 52.5227C176.516 52.5227 176.218 52.5966 175.953 52.7443C175.692 52.8883 175.485 53.0909 175.334 53.3523C175.186 53.6098 175.112 53.9129 175.112 54.2614V59H172.334ZM141.881 78V66.3636H149.824V68.6477H144.693V71.0341H149.318V73.3239H144.693V78H141.881ZM154.018 66.3636V78H151.24V66.3636H154.018ZM159.861 78.1648C158.944 78.1648 158.156 77.9773 157.497 77.6023C156.842 77.2235 156.336 76.697 155.98 76.0227C155.628 75.3447 155.452 74.5587 155.452 73.6648C155.452 72.767 155.628 71.9811 155.98 71.3068C156.336 70.6288 156.842 70.1023 157.497 69.7273C158.156 69.3485 158.944 69.1591 159.861 69.1591C160.777 69.1591 161.563 69.3485 162.219 69.7273C162.878 70.1023 163.384 70.6288 163.736 71.3068C164.092 71.9811 164.27 72.767 164.27 73.6648C164.27 74.5587 164.092 75.3447 163.736 76.0227C163.384 76.697 162.878 77.2235 162.219 77.6023C161.563 77.9773 160.777 78.1648 159.861 78.1648ZM159.878 76.0682C160.211 76.0682 160.493 75.9659 160.724 75.7614C160.955 75.5568 161.132 75.2727 161.253 74.9091C161.378 74.5455 161.44 74.125 161.44 73.6477C161.44 73.1629 161.378 72.7386 161.253 72.375C161.132 72.0114 160.955 71.7273 160.724 71.5227C160.493 71.3182 160.211 71.2159 159.878 71.2159C159.533 71.2159 159.241 71.3182 159.003 71.5227C158.768 71.7273 158.588 72.0114 158.463 72.375C158.342 72.7386 158.281 73.1629 158.281 73.6477C158.281 74.125 158.342 74.5455 158.463 74.9091C158.588 75.2727 158.768 75.5568 159.003 75.7614C159.241 75.9659 159.533 76.0682 159.878 76.0682ZM167.136 78L164.864 69.2727H167.653L168.83 74.8636H168.903L170.165 69.2727H172.886L174.182 74.8239H174.256L175.398 69.2727H178.188L175.909 78H172.938L171.574 72.9148H171.477L170.114 78H167.136Z" fill="white"/>
<path d="M165.5 123.13L220 92.7178L274.5 123.13V183.87L220 214.283L165.5 183.87V123.13Z" stroke="white" stroke-width="3"/>
<path d="M177.523 147.364L180.125 155.886H180.222L182.824 147.364H185.972L182.045 159H178.301L174.375 147.364H177.523ZM187.224 159V150.273H190.003V159H187.224ZM188.616 149.256C188.226 149.256 187.891 149.127 187.611 148.869C187.33 148.608 187.19 148.294 187.19 147.926C187.19 147.562 187.33 147.252 187.611 146.994C187.891 146.733 188.226 146.602 188.616 146.602C189.01 146.602 189.346 146.733 189.622 146.994C189.902 147.252 190.043 147.562 190.043 147.926C190.043 148.294 189.902 148.608 189.622 148.869C189.346 149.127 189.01 149.256 188.616 149.256ZM199.391 152.938L196.839 153.006C196.813 152.824 196.741 152.663 196.624 152.523C196.506 152.379 196.353 152.267 196.163 152.188C195.978 152.104 195.762 152.062 195.516 152.062C195.194 152.062 194.919 152.127 194.692 152.256C194.468 152.384 194.358 152.559 194.362 152.778C194.358 152.949 194.427 153.097 194.567 153.222C194.711 153.347 194.966 153.447 195.334 153.523L197.016 153.841C197.887 154.008 198.535 154.284 198.959 154.67C199.387 155.057 199.603 155.568 199.607 156.205C199.603 156.803 199.425 157.324 199.072 157.767C198.724 158.21 198.247 158.555 197.641 158.801C197.035 159.044 196.341 159.165 195.561 159.165C194.315 159.165 193.332 158.909 192.612 158.398C191.896 157.883 191.487 157.193 191.385 156.33L194.129 156.261C194.19 156.58 194.347 156.822 194.601 156.989C194.855 157.155 195.179 157.239 195.572 157.239C195.929 157.239 196.218 157.172 196.442 157.04C196.665 156.907 196.779 156.731 196.783 156.511C196.779 156.314 196.692 156.157 196.521 156.04C196.351 155.919 196.084 155.824 195.72 155.756L194.197 155.466C193.322 155.307 192.671 155.013 192.243 154.585C191.815 154.153 191.603 153.604 191.607 152.938C191.603 152.354 191.758 151.856 192.072 151.443C192.387 151.027 192.834 150.708 193.413 150.489C193.993 150.269 194.677 150.159 195.464 150.159C196.646 150.159 197.578 150.407 198.26 150.903C198.942 151.396 199.319 152.074 199.391 152.938ZM206.605 155.233V150.273H209.378V159H206.73V157.375H206.639C206.446 157.909 206.116 158.333 205.651 158.648C205.188 158.958 204.63 159.114 203.974 159.114C203.38 159.114 202.857 158.977 202.406 158.705C201.955 158.432 201.605 158.051 201.355 157.562C201.105 157.07 200.978 156.494 200.974 155.835V150.273H203.753V155.29C203.757 155.763 203.882 156.136 204.128 156.409C204.374 156.682 204.709 156.818 205.134 156.818C205.41 156.818 205.658 156.758 205.878 156.636C206.101 156.511 206.277 156.331 206.406 156.097C206.539 155.858 206.605 155.57 206.605 155.233ZM213.607 159.148C213.05 159.148 212.555 159.055 212.124 158.869C211.696 158.68 211.357 158.396 211.107 158.017C210.86 157.634 210.737 157.155 210.737 156.58C210.737 156.095 210.822 155.686 210.993 155.352C211.163 155.019 211.398 154.748 211.697 154.54C211.997 154.331 212.341 154.174 212.732 154.068C213.122 153.958 213.538 153.884 213.982 153.847C214.478 153.801 214.877 153.754 215.18 153.705C215.483 153.652 215.703 153.578 215.839 153.483C215.98 153.384 216.05 153.246 216.05 153.068V153.04C216.05 152.748 215.949 152.523 215.749 152.364C215.548 152.205 215.277 152.125 214.936 152.125C214.569 152.125 214.273 152.205 214.05 152.364C213.826 152.523 213.684 152.742 213.624 153.023L211.061 152.932C211.137 152.402 211.332 151.928 211.646 151.511C211.964 151.091 212.4 150.761 212.953 150.523C213.51 150.28 214.179 150.159 214.959 150.159C215.516 150.159 216.029 150.225 216.499 150.358C216.968 150.487 217.377 150.676 217.726 150.926C218.074 151.172 218.343 151.475 218.533 151.835C218.726 152.195 218.822 152.606 218.822 153.068V159H216.209V157.784H216.141C215.985 158.08 215.786 158.33 215.544 158.534C215.305 158.739 215.023 158.892 214.697 158.994C214.375 159.097 214.012 159.148 213.607 159.148ZM214.464 157.33C214.764 157.33 215.033 157.269 215.271 157.148C215.514 157.027 215.707 156.86 215.851 156.648C215.995 156.432 216.067 156.182 216.067 155.898V155.068C215.987 155.11 215.891 155.148 215.777 155.182C215.667 155.216 215.546 155.248 215.413 155.278C215.281 155.309 215.144 155.335 215.004 155.358C214.864 155.381 214.73 155.402 214.601 155.42C214.339 155.462 214.116 155.527 213.93 155.614C213.749 155.701 213.608 155.814 213.51 155.955C213.415 156.091 213.368 156.254 213.368 156.443C213.368 156.731 213.47 156.951 213.675 157.102C213.883 157.254 214.146 157.33 214.464 157.33ZM223.3 147.364V159H220.521V147.364H223.3ZM232.165 159.176C231.347 159.176 230.64 159.03 230.045 158.739C229.455 158.447 229 158.055 228.682 157.562C228.364 157.066 228.205 156.515 228.205 155.909C228.205 155.462 228.292 155.068 228.466 154.727C228.644 154.383 228.888 154.066 229.199 153.778C229.513 153.487 229.879 153.201 230.295 152.92L232.739 151.358C233.015 151.184 233.21 151 233.324 150.807C233.441 150.614 233.5 150.42 233.5 150.227C233.5 150.019 233.419 149.83 233.256 149.659C233.097 149.489 232.86 149.405 232.545 149.409C232.345 149.409 232.17 149.451 232.023 149.534C231.875 149.617 231.759 149.729 231.676 149.869C231.597 150.009 231.557 150.169 231.557 150.347C231.557 150.578 231.623 150.814 231.756 151.057C231.888 151.299 232.066 151.557 232.29 151.83C232.517 152.102 232.769 152.403 233.045 152.733L238.619 159H235.79L231.125 153.938C230.86 153.642 230.581 153.311 230.29 152.943C229.998 152.576 229.752 152.174 229.551 151.739C229.35 151.299 229.25 150.822 229.25 150.307C229.25 149.727 229.386 149.203 229.659 148.733C229.932 148.263 230.314 147.89 230.807 147.614C231.303 147.333 231.881 147.193 232.54 147.193C233.176 147.193 233.725 147.324 234.188 147.585C234.65 147.847 235.006 148.193 235.256 148.625C235.506 149.057 235.631 149.53 235.631 150.045C235.631 150.591 235.496 151.093 235.227 151.551C234.958 152.006 234.578 152.409 234.085 152.761L231.693 154.472C231.439 154.653 231.241 154.848 231.097 155.057C230.953 155.261 230.881 155.485 230.881 155.727C230.881 155.977 230.939 156.195 231.057 156.381C231.178 156.566 231.348 156.712 231.568 156.818C231.788 156.924 232.045 156.977 232.341 156.977C232.735 156.977 233.129 156.884 233.523 156.699C233.917 156.509 234.277 156.244 234.602 155.903C234.928 155.559 235.189 155.152 235.386 154.682C235.583 154.208 235.682 153.689 235.682 153.125H237.92C237.92 153.822 237.847 154.47 237.699 155.068C237.551 155.663 237.33 156.197 237.034 156.67C236.742 157.14 236.381 157.53 235.949 157.841C235.812 157.917 235.68 157.989 235.551 158.057C235.422 158.125 235.29 158.197 235.153 158.273C234.706 158.595 234.222 158.826 233.699 158.966C233.18 159.106 232.669 159.176 232.165 159.176ZM249.952 147.364H252.759V154.869C252.759 155.737 252.552 156.492 252.139 157.136C251.726 157.777 251.151 158.273 250.412 158.625C249.673 158.973 248.815 159.148 247.838 159.148C246.849 159.148 245.986 158.973 245.247 158.625C244.509 158.273 243.935 157.777 243.526 157.136C243.116 156.492 242.912 155.737 242.912 154.869V147.364H245.724V154.625C245.724 155.027 245.812 155.384 245.986 155.699C246.164 156.013 246.412 156.259 246.73 156.438C247.048 156.616 247.418 156.705 247.838 156.705C248.259 156.705 248.626 156.616 248.94 156.438C249.259 156.259 249.507 156.013 249.685 155.699C249.863 155.384 249.952 155.027 249.952 154.625V147.364ZM257.334 147.364V159H254.521V147.364H257.334Z" fill="white"/>
<path d="M383.5 123.13L438 92.7178L492.5 123.13V183.87L438 214.283L383.5 183.87V123.13Z" stroke="white" stroke-width="3"/>
<path d="M400.881 159V147.364H408.994V149.648H403.693V152.034H408.58V154.324H403.693V156.716H408.994V159H400.881ZM410.756 159V150.273H413.398V151.875H413.494C413.676 151.345 413.983 150.926 414.415 150.619C414.847 150.312 415.362 150.159 415.96 150.159C416.566 150.159 417.085 150.314 417.517 150.625C417.949 150.936 418.223 151.352 418.341 151.875H418.432C418.595 151.356 418.913 150.941 419.386 150.631C419.86 150.316 420.419 150.159 421.062 150.159C421.888 150.159 422.559 150.424 423.074 150.955C423.589 151.481 423.847 152.205 423.847 153.125V159H421.068V153.761C421.068 153.326 420.956 152.994 420.733 152.767C420.509 152.536 420.22 152.42 419.864 152.42C419.481 152.42 419.18 152.545 418.96 152.795C418.744 153.042 418.636 153.373 418.636 153.79V159H415.966V153.733C415.966 153.328 415.856 153.008 415.636 152.773C415.417 152.538 415.127 152.42 414.767 152.42C414.525 152.42 414.311 152.479 414.125 152.597C413.939 152.71 413.794 152.873 413.688 153.085C413.585 153.297 413.534 153.547 413.534 153.835V159H410.756ZM425.568 162.273V150.273H428.318V151.767H428.403C428.517 151.502 428.678 151.246 428.886 151C429.098 150.754 429.367 150.553 429.693 150.398C430.023 150.239 430.417 150.159 430.875 150.159C431.481 150.159 432.047 150.318 432.574 150.636C433.104 150.955 433.532 151.445 433.858 152.108C434.184 152.771 434.347 153.616 434.347 154.642C434.347 155.631 434.189 156.458 433.875 157.125C433.564 157.792 433.144 158.292 432.614 158.625C432.087 158.958 431.502 159.125 430.858 159.125C430.419 159.125 430.038 159.053 429.716 158.909C429.394 158.765 429.123 158.576 428.903 158.341C428.688 158.106 428.521 157.854 428.403 157.585H428.347V162.273H425.568ZM428.29 154.636C428.29 155.106 428.352 155.515 428.477 155.864C428.606 156.212 428.79 156.483 429.028 156.676C429.271 156.866 429.561 156.96 429.898 156.96C430.239 156.96 430.528 156.866 430.767 156.676C431.006 156.483 431.186 156.212 431.307 155.864C431.432 155.515 431.494 155.106 431.494 154.636C431.494 154.167 431.432 153.759 431.307 153.415C431.186 153.07 431.006 152.803 430.767 152.614C430.532 152.424 430.242 152.33 429.898 152.33C429.557 152.33 429.267 152.422 429.028 152.608C428.79 152.794 428.606 153.059 428.477 153.403C428.352 153.748 428.29 154.159 428.29 154.636ZM438.263 159.148C437.706 159.148 437.212 159.055 436.78 158.869C436.352 158.68 436.013 158.396 435.763 158.017C435.517 157.634 435.393 157.155 435.393 156.58C435.393 156.095 435.479 155.686 435.649 155.352C435.82 155.019 436.054 154.748 436.354 154.54C436.653 154.331 436.998 154.174 437.388 154.068C437.778 153.958 438.195 153.884 438.638 153.847C439.134 153.801 439.534 153.754 439.837 153.705C440.14 153.652 440.359 153.578 440.496 153.483C440.636 153.384 440.706 153.246 440.706 153.068V153.04C440.706 152.748 440.606 152.523 440.405 152.364C440.204 152.205 439.933 152.125 439.592 152.125C439.225 152.125 438.929 152.205 438.706 152.364C438.482 152.523 438.34 152.742 438.28 153.023L435.717 152.932C435.793 152.402 435.988 151.928 436.303 151.511C436.621 151.091 437.056 150.761 437.609 150.523C438.166 150.28 438.835 150.159 439.615 150.159C440.172 150.159 440.685 150.225 441.155 150.358C441.625 150.487 442.034 150.676 442.382 150.926C442.731 151.172 443 151.475 443.189 151.835C443.382 152.195 443.479 152.606 443.479 153.068V159H440.865V157.784H440.797C440.642 158.08 440.443 158.33 440.2 158.534C439.962 158.739 439.679 158.892 439.354 158.994C439.032 159.097 438.668 159.148 438.263 159.148ZM439.121 157.33C439.42 157.33 439.689 157.269 439.928 157.148C440.17 157.027 440.363 156.86 440.507 156.648C440.651 156.432 440.723 156.182 440.723 155.898V155.068C440.643 155.11 440.547 155.148 440.433 155.182C440.323 155.216 440.202 155.248 440.07 155.278C439.937 155.309 439.801 155.335 439.661 155.358C439.52 155.381 439.386 155.402 439.257 155.42C438.996 155.462 438.772 155.527 438.587 155.614C438.405 155.701 438.265 155.814 438.166 155.955C438.071 156.091 438.024 156.254 438.024 156.443C438.024 156.731 438.126 156.951 438.331 157.102C438.539 157.254 438.803 157.33 439.121 157.33ZM450.104 150.273V152.318H444.598V150.273H450.104ZM445.751 148.182H448.53V156.256C448.53 156.426 448.556 156.564 448.609 156.67C448.666 156.773 448.748 156.847 448.854 156.892C448.96 156.934 449.087 156.955 449.234 156.955C449.34 156.955 449.452 156.945 449.57 156.926C449.691 156.903 449.782 156.884 449.842 156.869L450.263 158.875C450.13 158.913 449.943 158.96 449.7 159.017C449.462 159.074 449.176 159.11 448.842 159.125C448.191 159.155 447.632 159.08 447.166 158.898C446.704 158.712 446.35 158.424 446.104 158.034C445.861 157.644 445.744 157.153 445.751 156.562V148.182ZM454.487 154.023V159H451.709V147.364H454.396V151.875H454.493C454.69 151.337 455.012 150.917 455.459 150.614C455.91 150.311 456.461 150.159 457.112 150.159C457.726 150.159 458.26 150.295 458.714 150.568C459.169 150.837 459.521 151.218 459.771 151.71C460.025 152.203 460.15 152.778 460.146 153.438V159H457.368V153.983C457.372 153.498 457.25 153.119 457.004 152.847C456.758 152.574 456.411 152.438 455.964 152.438C455.673 152.438 455.415 152.502 455.192 152.631C454.972 152.756 454.8 152.936 454.675 153.17C454.554 153.405 454.491 153.689 454.487 154.023ZM463.267 162.273C462.934 162.273 462.619 162.246 462.324 162.193C462.028 162.144 461.775 162.078 461.562 161.994L462.176 159.977C462.449 160.068 462.695 160.121 462.915 160.136C463.138 160.152 463.33 160.116 463.489 160.028C463.652 159.945 463.777 159.795 463.864 159.58L463.972 159.318L460.869 150.273H463.778L465.386 156.5H465.477L467.108 150.273H470.034L466.744 159.835C466.585 160.313 466.36 160.733 466.068 161.097C465.78 161.464 465.407 161.752 464.949 161.96C464.494 162.169 463.934 162.273 463.267 162.273Z" fill="white"/>
<path d="M492.5 123.13L547 92.7178L601.5 123.13V183.87L547 214.283L492.5 183.87V123.13Z" stroke="white" stroke-width="3"/>
<path d="M501.693 138.364V150H498.881V138.364H501.693ZM506.237 145.023V150H503.459V141.273H506.101V142.875H506.197C506.391 142.341 506.72 141.922 507.186 141.619C507.652 141.312 508.207 141.159 508.851 141.159C509.464 141.159 509.997 141.297 510.447 141.574C510.902 141.847 511.254 142.229 511.504 142.722C511.758 143.21 511.883 143.782 511.879 144.438V150H509.101V144.983C509.105 144.498 508.982 144.119 508.732 143.847C508.485 143.574 508.143 143.438 507.703 143.438C507.411 143.438 507.154 143.502 506.93 143.631C506.711 143.756 506.54 143.936 506.419 144.17C506.302 144.405 506.241 144.689 506.237 145.023ZM518.56 141.273V143.318H512.946V141.273H518.56ZM514.116 150V140.83C514.116 140.155 514.243 139.597 514.497 139.153C514.751 138.706 515.103 138.373 515.554 138.153C516.005 137.93 516.526 137.818 517.116 137.818C517.503 137.818 517.866 137.848 518.207 137.909C518.552 137.966 518.808 138.017 518.974 138.062L518.531 140.097C518.429 140.062 518.304 140.034 518.156 140.011C518.012 139.989 517.876 139.977 517.747 139.977C517.421 139.977 517.198 140.049 517.077 140.193C516.955 140.337 516.895 140.534 516.895 140.784V150H514.116ZM523.689 150.165C522.772 150.165 521.984 149.977 521.325 149.602C520.67 149.223 520.164 148.697 519.808 148.023C519.456 147.345 519.28 146.559 519.28 145.665C519.28 144.767 519.456 143.981 519.808 143.307C520.164 142.629 520.67 142.102 521.325 141.727C521.984 141.348 522.772 141.159 523.689 141.159C524.606 141.159 525.392 141.348 526.047 141.727C526.706 142.102 527.212 142.629 527.564 143.307C527.92 143.981 528.098 144.767 528.098 145.665C528.098 146.559 527.92 147.345 527.564 148.023C527.212 148.697 526.706 149.223 526.047 149.602C525.392 149.977 524.606 150.165 523.689 150.165ZM523.706 148.068C524.039 148.068 524.321 147.966 524.553 147.761C524.784 147.557 524.96 147.273 525.081 146.909C525.206 146.545 525.268 146.125 525.268 145.648C525.268 145.163 525.206 144.739 525.081 144.375C524.96 144.011 524.784 143.727 524.553 143.523C524.321 143.318 524.039 143.216 523.706 143.216C523.361 143.216 523.07 143.318 522.831 143.523C522.596 143.727 522.416 144.011 522.291 144.375C522.17 144.739 522.109 145.163 522.109 145.648C522.109 146.125 522.17 146.545 522.291 146.909C522.416 147.273 522.596 147.557 522.831 147.761C523.07 147.966 523.361 148.068 523.706 148.068ZM529.521 150V141.273H532.22V142.864H532.311C532.47 142.288 532.73 141.86 533.089 141.58C533.449 141.295 533.868 141.153 534.345 141.153C534.474 141.153 534.607 141.163 534.743 141.182C534.879 141.197 535.006 141.222 535.124 141.256V143.67C534.991 143.625 534.817 143.589 534.601 143.562C534.389 143.536 534.199 143.523 534.033 143.523C533.703 143.523 533.406 143.597 533.141 143.744C532.879 143.888 532.673 144.091 532.521 144.352C532.374 144.61 532.3 144.913 532.3 145.261V150H529.521ZM536.256 150V141.273H538.898V142.875H538.994C539.176 142.345 539.483 141.926 539.915 141.619C540.347 141.312 540.862 141.159 541.46 141.159C542.066 141.159 542.585 141.314 543.017 141.625C543.449 141.936 543.723 142.352 543.841 142.875H543.932C544.095 142.356 544.413 141.941 544.886 141.631C545.36 141.316 545.919 141.159 546.562 141.159C547.388 141.159 548.059 141.424 548.574 141.955C549.089 142.481 549.347 143.205 549.347 144.125V150H546.568V144.761C546.568 144.326 546.456 143.994 546.233 143.767C546.009 143.536 545.72 143.42 545.364 143.42C544.981 143.42 544.68 143.545 544.46 143.795C544.244 144.042 544.136 144.373 544.136 144.79V150H541.466V144.733C541.466 144.328 541.356 144.008 541.136 143.773C540.917 143.538 540.627 143.42 540.267 143.42C540.025 143.42 539.811 143.479 539.625 143.597C539.439 143.71 539.294 143.873 539.188 144.085C539.085 144.297 539.034 144.547 539.034 144.835V150H536.256ZM553.528 150.148C552.972 150.148 552.477 150.055 552.045 149.869C551.617 149.68 551.278 149.396 551.028 149.017C550.782 148.634 550.659 148.155 550.659 147.58C550.659 147.095 550.744 146.686 550.915 146.352C551.085 146.019 551.32 145.748 551.619 145.54C551.919 145.331 552.263 145.174 552.653 145.068C553.044 144.958 553.46 144.884 553.903 144.847C554.4 144.801 554.799 144.754 555.102 144.705C555.405 144.652 555.625 144.578 555.761 144.483C555.902 144.384 555.972 144.246 555.972 144.068V144.04C555.972 143.748 555.871 143.523 555.67 143.364C555.47 143.205 555.199 143.125 554.858 143.125C554.491 143.125 554.195 143.205 553.972 143.364C553.748 143.523 553.606 143.742 553.545 144.023L550.983 143.932C551.059 143.402 551.254 142.928 551.568 142.511C551.886 142.091 552.322 141.761 552.875 141.523C553.432 141.28 554.1 141.159 554.881 141.159C555.438 141.159 555.951 141.225 556.42 141.358C556.89 141.487 557.299 141.676 557.648 141.926C557.996 142.172 558.265 142.475 558.455 142.835C558.648 143.195 558.744 143.606 558.744 144.068V150H556.131V148.784H556.062C555.907 149.08 555.708 149.33 555.466 149.534C555.227 149.739 554.945 149.892 554.619 149.994C554.297 150.097 553.934 150.148 553.528 150.148ZM554.386 148.33C554.686 148.33 554.955 148.269 555.193 148.148C555.436 148.027 555.629 147.86 555.773 147.648C555.917 147.432 555.989 147.182 555.989 146.898V146.068C555.909 146.11 555.813 146.148 555.699 146.182C555.589 146.216 555.468 146.248 555.335 146.278C555.203 146.309 555.066 146.335 554.926 146.358C554.786 146.381 554.652 146.402 554.523 146.42C554.261 146.462 554.038 146.527 553.852 146.614C553.67 146.701 553.53 146.814 553.432 146.955C553.337 147.091 553.29 147.254 553.29 147.443C553.29 147.731 553.392 147.951 553.597 148.102C553.805 148.254 554.068 148.33 554.386 148.33ZM565.369 141.273V143.318H559.864V141.273H565.369ZM561.017 139.182H563.795V147.256C563.795 147.426 563.822 147.564 563.875 147.67C563.932 147.773 564.013 147.847 564.119 147.892C564.225 147.934 564.352 147.955 564.5 147.955C564.606 147.955 564.718 147.945 564.835 147.926C564.956 147.903 565.047 147.884 565.108 147.869L565.528 149.875C565.396 149.913 565.208 149.96 564.966 150.017C564.727 150.074 564.441 150.11 564.108 150.125C563.456 150.155 562.898 150.08 562.432 149.898C561.97 149.712 561.616 149.424 561.369 149.034C561.127 148.644 561.009 148.153 561.017 147.562V139.182ZM566.787 150V141.273H569.565V150H566.787ZM568.179 140.256C567.789 140.256 567.454 140.127 567.173 139.869C566.893 139.608 566.753 139.294 566.753 138.926C566.753 138.562 566.893 138.252 567.173 137.994C567.454 137.733 567.789 137.602 568.179 137.602C568.573 137.602 568.908 137.733 569.185 137.994C569.465 138.252 569.605 138.562 569.605 138.926C569.605 139.294 569.465 139.608 569.185 139.869C568.908 140.127 568.573 140.256 568.179 140.256ZM575.408 150.165C574.491 150.165 573.703 149.977 573.044 149.602C572.389 149.223 571.883 148.697 571.527 148.023C571.175 147.345 570.999 146.559 570.999 145.665C570.999 144.767 571.175 143.981 571.527 143.307C571.883 142.629 572.389 142.102 573.044 141.727C573.703 141.348 574.491 141.159 575.408 141.159C576.324 141.159 577.11 141.348 577.766 141.727C578.425 142.102 578.93 142.629 579.283 143.307C579.639 143.981 579.817 144.767 579.817 145.665C579.817 146.559 579.639 147.345 579.283 148.023C578.93 148.697 578.425 149.223 577.766 149.602C577.11 149.977 576.324 150.165 575.408 150.165ZM575.425 148.068C575.758 148.068 576.04 147.966 576.271 147.761C576.502 147.557 576.679 147.273 576.8 146.909C576.925 146.545 576.987 146.125 576.987 145.648C576.987 145.163 576.925 144.739 576.8 144.375C576.679 144.011 576.502 143.727 576.271 143.523C576.04 143.318 575.758 143.216 575.425 143.216C575.08 143.216 574.788 143.318 574.55 143.523C574.315 143.727 574.135 144.011 574.01 144.375C573.889 144.739 573.828 145.163 573.828 145.648C573.828 146.125 573.889 146.545 574.01 146.909C574.135 147.273 574.315 147.557 574.55 147.761C574.788 147.966 575.08 148.068 575.425 148.068ZM584.018 145.023V150H581.24V141.273H583.882V142.875H583.979C584.172 142.341 584.501 141.922 584.967 141.619C585.433 141.312 585.988 141.159 586.632 141.159C587.246 141.159 587.778 141.297 588.229 141.574C588.683 141.847 589.036 142.229 589.286 142.722C589.539 143.21 589.664 143.782 589.661 144.438V150H586.882V144.983C586.886 144.498 586.763 144.119 586.513 143.847C586.267 143.574 585.924 143.438 585.484 143.438C585.193 143.438 584.935 143.502 584.712 143.631C584.492 143.756 584.321 143.936 584.2 144.17C584.083 144.405 584.022 144.689 584.018 145.023ZM502.068 169.125C501.424 169.125 500.839 168.958 500.312 168.625C499.786 168.292 499.366 167.792 499.051 167.125C498.737 166.458 498.58 165.631 498.58 164.642C498.58 163.616 498.742 162.771 499.068 162.108C499.394 161.445 499.82 160.955 500.347 160.636C500.877 160.318 501.447 160.159 502.057 160.159C502.515 160.159 502.907 160.239 503.233 160.398C503.559 160.553 503.828 160.754 504.04 161C504.252 161.246 504.413 161.502 504.523 161.767H504.58V157.364H507.358V169H504.608V167.585H504.523C504.405 167.854 504.239 168.106 504.023 168.341C503.807 168.576 503.536 168.765 503.21 168.909C502.888 169.053 502.508 169.125 502.068 169.125ZM503.034 166.96C503.371 166.96 503.659 166.866 503.898 166.676C504.136 166.483 504.32 166.212 504.449 165.864C504.578 165.515 504.642 165.106 504.642 164.636C504.642 164.159 504.578 163.748 504.449 163.403C504.324 163.059 504.14 162.794 503.898 162.608C503.659 162.422 503.371 162.33 503.034 162.33C502.689 162.33 502.398 162.424 502.159 162.614C501.92 162.803 501.739 163.07 501.614 163.415C501.492 163.759 501.432 164.167 501.432 164.636C501.432 165.106 501.494 165.515 501.619 165.864C501.744 166.212 501.924 166.483 502.159 166.676C502.398 166.866 502.689 166.96 503.034 166.96ZM513.195 169.165C512.282 169.165 511.494 168.985 510.831 168.625C510.172 168.261 509.664 167.744 509.308 167.074C508.956 166.4 508.78 165.598 508.78 164.67C508.78 163.769 508.958 162.981 509.314 162.307C509.67 161.629 510.172 161.102 510.82 160.727C511.467 160.348 512.231 160.159 513.109 160.159C513.731 160.159 514.299 160.256 514.814 160.449C515.329 160.642 515.774 160.928 516.149 161.307C516.524 161.686 516.816 162.153 517.024 162.71C517.232 163.263 517.337 163.898 517.337 164.614V165.307H509.751V163.693H514.751C514.748 163.398 514.678 163.134 514.541 162.903C514.405 162.672 514.217 162.492 513.979 162.364C513.744 162.231 513.473 162.165 513.166 162.165C512.856 162.165 512.577 162.235 512.331 162.375C512.085 162.511 511.89 162.699 511.746 162.938C511.602 163.172 511.526 163.439 511.518 163.739V165.381C511.518 165.737 511.589 166.049 511.729 166.318C511.869 166.583 512.068 166.79 512.325 166.938C512.583 167.085 512.89 167.159 513.246 167.159C513.492 167.159 513.715 167.125 513.916 167.057C514.117 166.989 514.289 166.888 514.433 166.756C514.577 166.623 514.685 166.46 514.757 166.267L517.308 166.341C517.202 166.913 516.969 167.411 516.609 167.835C516.253 168.256 515.786 168.583 515.206 168.818C514.626 169.049 513.956 169.165 513.195 169.165ZM526.375 162.938L523.824 163.006C523.797 162.824 523.725 162.663 523.608 162.523C523.491 162.379 523.337 162.267 523.148 162.188C522.962 162.104 522.746 162.062 522.5 162.062C522.178 162.062 521.903 162.127 521.676 162.256C521.453 162.384 521.343 162.559 521.347 162.778C521.343 162.949 521.411 163.097 521.551 163.222C521.695 163.347 521.951 163.447 522.318 163.523L524 163.841C524.871 164.008 525.519 164.284 525.943 164.67C526.371 165.057 526.587 165.568 526.591 166.205C526.587 166.803 526.409 167.324 526.057 167.767C525.708 168.21 525.231 168.555 524.625 168.801C524.019 169.044 523.326 169.165 522.545 169.165C521.299 169.165 520.316 168.909 519.597 168.398C518.881 167.883 518.472 167.193 518.369 166.33L521.114 166.261C521.174 166.58 521.331 166.822 521.585 166.989C521.839 167.155 522.163 167.239 522.557 167.239C522.913 167.239 523.203 167.172 523.426 167.04C523.65 166.907 523.763 166.731 523.767 166.511C523.763 166.314 523.676 166.157 523.506 166.04C523.335 165.919 523.068 165.824 522.705 165.756L521.182 165.466C520.307 165.307 519.655 165.013 519.227 164.585C518.799 164.153 518.587 163.604 518.591 162.938C518.587 162.354 518.742 161.856 519.057 161.443C519.371 161.027 519.818 160.708 520.398 160.489C520.977 160.269 521.661 160.159 522.449 160.159C523.631 160.159 524.563 160.407 525.244 160.903C525.926 161.396 526.303 162.074 526.375 162.938ZM527.959 169V160.273H530.737V169H527.959ZM529.351 159.256C528.961 159.256 528.625 159.127 528.345 158.869C528.065 158.608 527.925 158.294 527.925 157.926C527.925 157.562 528.065 157.252 528.345 156.994C528.625 156.733 528.961 156.602 529.351 156.602C529.745 156.602 530.08 156.733 530.357 156.994C530.637 157.252 530.777 157.562 530.777 157.926C530.777 158.294 530.637 158.608 530.357 158.869C530.08 159.127 529.745 159.256 529.351 159.256ZM536.574 172.455C535.744 172.455 535.034 172.339 534.443 172.108C533.852 171.877 533.388 171.561 533.051 171.159C532.714 170.758 532.511 170.303 532.443 169.795L535.074 169.648C535.123 169.826 535.214 169.981 535.347 170.114C535.483 170.246 535.659 170.348 535.875 170.42C536.095 170.492 536.352 170.528 536.648 170.528C537.114 170.528 537.498 170.415 537.801 170.188C538.108 169.964 538.261 169.572 538.261 169.011V167.477H538.165C538.055 167.746 537.888 167.987 537.665 168.199C537.441 168.411 537.163 168.578 536.83 168.699C536.5 168.82 536.121 168.881 535.693 168.881C535.057 168.881 534.473 168.733 533.943 168.438C533.417 168.138 532.994 167.676 532.676 167.051C532.362 166.422 532.205 165.614 532.205 164.625C532.205 163.606 532.367 162.767 532.693 162.108C533.019 161.445 533.445 160.955 533.972 160.636C534.502 160.318 535.072 160.159 535.682 160.159C536.14 160.159 536.532 160.239 536.858 160.398C537.188 160.553 537.458 160.754 537.67 161C537.883 161.246 538.044 161.502 538.153 161.767H538.233V160.273H541V169.034C541 169.773 540.814 170.396 540.443 170.903C540.072 171.411 539.553 171.795 538.886 172.057C538.22 172.322 537.449 172.455 536.574 172.455ZM536.659 166.858C536.996 166.858 537.284 166.769 537.523 166.591C537.761 166.413 537.945 166.157 538.074 165.824C538.203 165.491 538.267 165.091 538.267 164.625C538.267 164.152 538.203 163.744 538.074 163.403C537.949 163.059 537.765 162.794 537.523 162.608C537.284 162.422 536.996 162.33 536.659 162.33C536.314 162.33 536.023 162.424 535.784 162.614C535.545 162.803 535.364 163.07 535.239 163.415C535.117 163.756 535.057 164.159 535.057 164.625C535.057 165.091 535.119 165.491 535.244 165.824C535.369 166.157 535.549 166.413 535.784 166.591C536.023 166.769 536.314 166.858 536.659 166.858ZM545.55 164.023V169H542.771V160.273H545.413V161.875H545.51C545.703 161.341 546.033 160.922 546.499 160.619C546.964 160.312 547.519 160.159 548.163 160.159C548.777 160.159 549.309 160.297 549.76 160.574C550.214 160.847 550.567 161.229 550.817 161.722C551.071 162.21 551.196 162.782 551.192 163.438V169H548.413V163.983C548.417 163.498 548.294 163.119 548.044 162.847C547.798 162.574 547.455 162.438 547.016 162.438C546.724 162.438 546.466 162.502 546.243 162.631C546.023 162.756 545.853 162.936 545.732 163.17C545.614 163.405 545.554 163.689 545.55 164.023Z" fill="white"/>
</svg>
